<svg width="162" height="31" viewBox="0 0 162 31" fill="none" xmlns="http://www.w3.org/2000/svg">
<ellipse cx="13" cy="15.5" rx="13" ry="12.5" fill="black"/>
<path d="M20.8658 6.5L1 30M20.2308 7.18033L26 1" stroke="black" stroke-width="2"/>
<path d="M33.9595 27V4.45454H42.9865C44.6451 4.45454 46.0285 4.7004 47.1367 5.19212C48.2449 5.68383 49.0779 6.36636 49.6357 7.2397C50.1934 8.10571 50.4723 9.10381 50.4723 10.234C50.4723 11.1147 50.2962 11.889 49.9439 12.5568C49.5916 13.2173 49.1072 13.7604 48.4908 14.1861C47.8816 14.6044 47.1844 14.9016 46.3991 15.0778V15.2979C47.2578 15.3346 48.0614 15.5768 48.81 16.0245C49.5659 16.4722 50.1787 17.0997 50.6484 17.907C51.1181 18.7069 51.353 19.661 51.353 20.7692C51.353 21.9654 51.0558 23.0333 50.4613 23.9727C49.8742 24.9047 49.0045 25.6423 47.8523 26.1854C46.7 26.7285 45.2799 27 43.592 27H33.9595ZM38.7262 23.103H42.6122C43.9406 23.103 44.9093 22.8498 45.5185 22.3434C46.1276 21.8297 46.4322 21.1471 46.4322 20.2958C46.4322 19.672 46.2817 19.1216 45.9808 18.6445C45.6799 18.1675 45.2506 17.7932 44.6928 17.5217C44.1424 17.2501 43.4856 17.1143 42.7223 17.1143H38.7262V23.103ZM38.7262 13.8888H42.2599C42.9131 13.8888 43.4929 13.7751 43.9993 13.5476C44.513 13.3127 44.9167 12.9825 45.2102 12.5568C45.5111 12.1312 45.6616 11.6211 45.6616 11.0266C45.6616 10.212 45.3717 9.55516 44.7919 9.05611C44.2195 8.55705 43.4048 8.30753 42.348 8.30753H38.7262V13.8888ZM75.1727 15.7273C75.1727 18.1858 74.7066 20.2775 73.7746 22.0021C72.8499 23.7268 71.5876 25.0442 69.9877 25.9542C68.3951 26.8569 66.6044 27.3082 64.6155 27.3082C62.6119 27.3082 60.8139 26.8532 59.2213 25.9432C57.6288 25.0331 56.3701 23.7158 55.4454 21.9911C54.5207 20.2665 54.0583 18.1785 54.0583 15.7273C54.0583 13.2687 54.5207 11.1771 55.4454 9.45242C56.3701 7.72775 57.6288 6.41406 59.2213 5.51136C60.8139 4.60133 62.6119 4.14631 64.6155 4.14631C66.6044 4.14631 68.3951 4.60133 69.9877 5.51136C71.5876 6.41406 72.8499 7.72775 73.7746 9.45242C74.7066 11.1771 75.1727 13.2687 75.1727 15.7273ZM70.3399 15.7273C70.3399 14.1347 70.1014 12.7917 69.6244 11.6982C69.1547 10.6046 68.4905 9.77533 67.6318 9.21023C66.7732 8.64512 65.7677 8.36257 64.6155 8.36257C63.4633 8.36257 62.4578 8.64512 61.5992 9.21023C60.7405 9.77533 60.0727 10.6046 59.5956 11.6982C59.1259 12.7917 58.8911 14.1347 58.8911 15.7273C58.8911 17.3198 59.1259 18.6629 59.5956 19.7564C60.0727 20.8499 60.7405 21.6792 61.5992 22.2443C62.4578 22.8094 63.4633 23.092 64.6155 23.092C65.7677 23.092 66.7732 22.8094 67.6318 22.2443C68.4905 21.6792 69.1547 20.8499 69.6244 19.7564C70.1014 18.6629 70.3399 17.3198 70.3399 15.7273ZM99.4217 15.7273C99.4217 18.1858 98.9557 20.2775 98.0236 22.0021C97.0989 23.7268 95.8366 25.0442 94.2367 25.9542C92.6441 26.8569 90.8534 27.3082 88.8645 27.3082C86.861 27.3082 85.0629 26.8532 83.4703 25.9432C81.8778 25.0331 80.6191 23.7158 79.6944 21.9911C78.7697 20.2665 78.3074 18.1785 78.3074 15.7273C78.3074 13.2687 78.7697 11.1771 79.6944 9.45242C80.6191 7.72775 81.8778 6.41406 83.4703 5.51136C85.0629 4.60133 86.861 4.14631 88.8645 4.14631C90.8534 4.14631 92.6441 4.60133 94.2367 5.51136C95.8366 6.41406 97.0989 7.72775 98.0236 9.45242C98.9557 11.1771 99.4217 13.2687 99.4217 15.7273ZM94.589 15.7273C94.589 14.1347 94.3504 12.7917 93.8734 11.6982C93.4037 10.6046 92.7395 9.77533 91.8809 9.21023C91.0222 8.64512 90.0167 8.36257 88.8645 8.36257C87.7123 8.36257 86.7069 8.64512 85.8482 9.21023C84.9895 9.77533 84.3217 10.6046 83.8446 11.6982C83.3749 12.7917 83.1401 14.1347 83.1401 15.7273C83.1401 17.3198 83.3749 18.6629 83.8446 19.7564C84.3217 20.8499 84.9895 21.6792 85.8482 22.2443C86.7069 22.8094 87.7123 23.092 88.8645 23.092C90.0167 23.092 91.0222 22.8094 91.8809 22.2443C92.7395 21.6792 93.4037 20.8499 93.8734 19.7564C94.3504 18.6629 94.589 17.3198 94.589 15.7273ZM102.953 27V4.45454H111.848C113.55 4.45454 115.003 4.75911 116.207 5.36825C117.418 5.97005 118.339 6.82505 118.97 7.93324C119.609 9.03409 119.928 10.3294 119.928 11.8192C119.928 13.3164 119.605 14.6044 118.959 15.6832C118.313 16.7547 117.378 17.5767 116.152 18.1491C114.934 18.7216 113.458 19.0078 111.726 19.0078H105.771V15.1768H110.956C111.866 15.1768 112.622 15.0521 113.224 14.8026C113.825 14.553 114.273 14.1787 114.567 13.6797C114.868 13.1806 115.018 12.5605 115.018 11.8192C115.018 11.0707 114.868 10.4395 114.567 9.92578C114.273 9.41205 113.822 9.02308 113.213 8.75888C112.611 8.48733 111.851 8.35156 110.934 8.35156H107.719V27H102.953ZM115.128 16.7401L120.731 27H115.469L109.987 16.7401H115.128ZM123.296 27V4.45454H138.488V8.38459H128.063V13.7567H137.707V17.6868H128.063V23.07H138.532V27H123.296ZM150.27 27H142.278V4.45454H150.336C152.604 4.45454 154.556 4.90589 156.193 5.80859C157.829 6.70395 159.088 7.99195 159.969 9.67258C160.857 11.3532 161.301 13.3641 161.301 15.7053C161.301 18.0537 160.857 20.072 159.969 21.7599C159.088 23.4479 157.822 24.7433 156.171 25.646C154.527 26.5487 152.56 27 150.27 27ZM147.045 22.9158H150.072C151.481 22.9158 152.666 22.6663 153.628 22.1673C154.596 21.6609 155.323 20.8793 155.807 19.8224C156.299 18.7583 156.545 17.3859 156.545 15.7053C156.545 14.0393 156.299 12.6779 155.807 11.6211C155.323 10.5643 154.6 9.78634 153.639 9.28729C152.677 8.78823 151.492 8.53871 150.083 8.53871H147.045V22.9158Z" fill="black"/>
</svg>
