<svg width="164" height="173" viewBox="0 0 164 173" fill="none" xmlns="http://www.w3.org/2000/svg">
<path d="M51.2004 143.052C26.5133 133.051 19.6558 101.882 19.3129 87.5476C18.2843 73.3799 19.21 40.2442 31.1421 21.0428C46.0573 -2.95892 95.9458 -7.95928 119.604 14.0423C143.263 37.044 138.634 56.0454 138.634 87.5476C138.634 112.863 117.033 136.051 104.689 144.552C97.1458 148.219 75.8875 153.052 51.2004 143.052Z" fill="#7BB551"/>
<path d="M60.5 146L57 153.5L60.5 167L57 171.5H72L68.5 156H89L87 171.5H99.5L96.5 167L99.5 153.5V146M29 171.5H128" stroke="white" stroke-width="2"/>
<path d="M115 120L139 136C141.333 137.833 146.1 142 146.5 144C146.757 145.284 147.439 146.499 148.072 147.381C148.48 147.951 149.306 147.811 149.591 147.169L151 144H159.5C160.052 144 160.5 143.552 160.5 143V142M160.5 142L154 138M160.5 142L161.981 139.631C162.55 138.72 162.298 137.522 161.41 136.918L127 113.5" stroke="white" stroke-width="2"/>
<path d="M60.5 119.5C61.6667 114.167 66.3 106.3 75.5 117.5M84 117.5C85.6667 112 90.8 103.9 98 115.5M75.5 122C77.1667 122.833 81.8 124 87 122M46 119.5L21.5 135C19.5 136.833 15.5 141 15.5 143C15.5 144.41 14.5062 146.234 13.5694 147.596C13.129 148.237 12.1873 148.062 11.9415 147.324L10.5 143H3.4868C2.48211 143 2.10482 141.684 2.9568 141.152L8 138L4.02687 139.49C3.03542 139.862 2.22183 138.639 2.94755 137.868L8 132.5L35 115.5M24.5 37.5L130 30C133 35 138.4 45.3 136 46.5C133.6 47.7 58.6667 51.3333 21.5 53L24.5 37.5Z" stroke="white" stroke-width="2"/>
</svg>
